<?xml version="1.0" encoding="UTF-8" standalone="no"?>
<svg
   xmlns:dc="http://purl.org/dc/elements/1.1/"
   xmlns:cc="http://creativecommons.org/ns#"
   xmlns:rdf="http://www.w3.org/1999/02/22-rdf-syntax-ns#"
   xmlns:svg="http://www.w3.org/2000/svg"
   xmlns="http://www.w3.org/2000/svg"
   xmlns:sodipodi="http://sodipodi.sourceforge.net/DTD/sodipodi-0.dtd"
   xmlns:inkscape="http://www.inkscape.org/namespaces/inkscape"
   width="42.06073mm"
   height="42.06073mm"
   viewBox="0 0 42.06073 42.06073"
   version="1.1"
   id="svg8"
   inkscape:version="1.0.2 (e86c870879, 2021-01-15)"
   sodipodi:docname="icon.svg">
  <defs
     id="defs2" />
  <sodipodi:namedview
     id="base"
     pagecolor="#ffffff"
     bordercolor="#666666"
     borderopacity="1.0"
     inkscape:pageopacity="0.0"
     inkscape:pageshadow="2"
     inkscape:zoom="1.4"
     inkscape:cx="123.92046"
     inkscape:cy="179.64495"
     inkscape:document-units="mm"
     inkscape:current-layer="layer1"
     inkscape:document-rotation="0"
     showgrid="false"
     inkscape:window-width="1920"
     inkscape:window-height="1080"
     inkscape:window-x="0"
     inkscape:window-y="0"
     inkscape:window-maximized="0" />
  <metadata
     id="metadata5">
    <rdf:RDF>
      <cc:Work
         rdf:about="">
        <dc:format>image/svg+xml</dc:format>
        <dc:type
           rdf:resource="http://purl.org/dc/dcmitype/StillImage" />
        <dc:title></dc:title>
      </cc:Work>
    </rdf:RDF>
  </metadata>
  <g
     inkscape:label="Layer 1"
     inkscape:groupmode="layer"
     id="layer1"
     transform="translate(-32.100251,-87.944474)">
    <rect
       style="fill:#66cc33;fill-opacity:1;stroke:#66cc33;stroke-width:0.737394;stroke-linejoin:round"
       id="rect10"
       width="41.323338"
       height="41.323338"
       x="32.468948"
       y="88.313171" />
    <rect
       style="fill:#99ccff;fill-opacity:1;stroke:#99ccff;stroke-width:0.830967;stroke-linejoin:round"
       id="rect12"
       width="41.010235"
       height="21.553072"
       x="32.735264"
       y="88.359955" />
    <path
       d="m 61.876115,97.24005 -0.47413,-0.107573 c 0,0 -6.6e-5,-9e-6 -6.6e-5,-9e-6 l -0.532785,-0.120951 1.044885,-4.605098 c 0.0044,7.39e-4 0.0088,0.0018 0.0133,0.0024 0.266601,0.03645 0.521388,-0.136445 0.582022,-0.403775 0.06409,-0.282476 -0.11296,-0.563442 -0.395426,-0.627601 l -0.479397,-0.108748 c -6.5e-5,-8e-6 -1.3e-4,-1.7e-5 -1.3e-4,-1.7e-5 l -6.138256,-1.392863 c 0,0 -1.3e-4,-1.8e-5 -1.3e-4,-1.8e-5 l -0.479396,-0.108747 c -0.282298,-0.06394 -0.563506,0.112951 -0.627601,0.395426 -0.06163,0.271695 0.100088,0.541431 0.363884,0.618722 l -1.045043,4.605277 -1.006982,-0.228523 c -0.282254,-0.06426 -0.563497,0.112886 -0.627601,0.395427 -0.06125,0.269892 0.09787,0.537818 0.358404,0.617178 l -1.048719,4.615224 c -0.269053,-0.0398 -0.527121,0.13289 -0.5883,0.40226 -0.06109,0.26925 0.09716,0.53673 0.356742,0.61675 l -1.054206,4.63891 c -0.268339,-0.0397 -0.525585,0.13375 -0.586563,0.40262 -0.06096,0.26874 0.09645,0.53564 0.355087,0.61626 l -1.041899,4.58519 c -0.267504,-0.0376 -0.523984,0.13463 -0.584884,0.40292 -0.06081,0.26817 0.09581,0.5345 0.35337,0.61576 l -1.03471,4.55342 -0.358846,-0.049 c -0.286998,-0.0392 -0.5515,0.16163 -0.590736,0.44863 -0.03924,0.287 0.161644,0.5515 0.448642,0.59074 l 2.939299,0.40183 c 2.71e-4,4e-5 4.67e-4,7e-5 7.13e-4,1e-4 1.95e-4,3e-5 4.67e-4,6e-5 6.38e-4,9e-5 l 4.1937,0.57332 c 2.71e-4,4e-5 4.67e-4,7e-5 7.13e-4,1e-4 1.94e-4,3e-5 4.65e-4,7e-5 6.38e-4,9e-5 l 2.096168,0.28657 c 2.69e-4,4e-5 4.66e-4,6e-5 7.12e-4,1e-4 1.94e-4,2e-5 4.66e-4,6e-5 6.38e-4,8e-5 l 1.171315,0.16014 c 0.286999,0.0392 0.551501,-0.16164 0.590737,-0.44864 0.03924,-0.287 -0.161644,-0.5515 -0.448643,-0.59074 l -0.605373,-0.0828 0.849386,-3.74336 c 0.0027,3.7e-4 0.0053,9.8e-4 0.008,0.001 0.266601,0.0365 0.521387,-0.13645 0.582014,-0.40372 0.06126,-0.26995 -0.09792,-0.53795 -0.358599,-0.6172 l 1.0404,-4.58487 c 0.0027,3.7e-4 0.0053,9.8e-4 0.008,0.001 0.2666,0.0364 0.521388,-0.13645 0.582012,-0.40371 0.06126,-0.26996 -0.09791,-0.53796 -0.358654,-0.61728 l 1.052575,-4.6386 c 0.0027,4.4e-4 0.0053,0.001 0.008,0.002 0.2666,0.0364 0.521387,-0.13645 0.582022,-0.40378 0.06125,-0.26989 -0.09792,-0.53789 -0.358598,-0.61721 l 1.047254,-4.615159 c 0.0027,3.66e-4 0.0053,9.77e-4 0.008,0.0013 0.2666,0.03645 0.521387,-0.136443 0.582013,-0.40371 0.0641,-0.282542 -0.112951,-0.563506 -0.395427,-0.627601 z m -5.550833,12.73429 c -0.282871,-0.0641 -0.563506,0.11295 -0.6276,0.39542 l -0.698218,3.07713 -1.044346,-0.23694 0.698217,-3.07713 c 0.06416,-0.28246 -0.112887,-0.56349 -0.395426,-0.6276 -0.282546,-0.0641 -0.563506,0.11295 -0.627601,0.39543 l -0.698218,3.07713 -1.022958,-0.23221 0.698217,-3.07712 c 0.06409,-0.28247 -0.112952,-0.5635 -0.395428,-0.62759 -0.282675,-0.0641 -0.563504,0.11294 -0.627599,0.39542 l -0.698218,3.07712 -1.038698,-0.23566 1.040934,-4.58102 7.207431,1.63551 -1.039585,4.58133 -1.03362,-0.23456 0.698218,-3.07713 c 0.06403,-0.28248 -0.113025,-0.56345 -0.395501,-0.62754 z m 0.968913,-1.89972 0.707169,-3.11646 c 0.06409,-0.28248 -0.112952,-0.56351 -0.395426,-0.62761 -0.282805,-0.0641 -0.563506,0.11296 -0.6276,0.39543 l -0.70717,3.11646 -1.044345,-0.23694 0.707177,-3.11652 c 0.06409,-0.28249 -0.112952,-0.56351 -0.395427,-0.62761 -0.282741,-0.0641 -0.56344,0.11296 -0.6276,0.39543 l -0.707179,3.11653 -1.022957,-0.2322 0.707178,-3.11654 c 0.06409,-0.28247 -0.112952,-0.5635 -0.395426,-0.6276 -0.282454,-0.0643 -0.563506,0.11295 -0.627602,0.39543 l -0.707176,3.11653 -1.036958,-0.23533 1.053173,-4.63474 5.660532,1.28448 6.5e-5,1e-5 6.5e-5,0 1.545173,0.35061 -1.051762,4.63507 z m 1.283862,-5.65803 0.698217,-3.077129 c 0.06409,-0.282474 -0.112951,-0.563505 -0.395426,-0.6276 -0.282865,-0.06414 -0.563507,0.112953 -0.627601,0.395427 l -0.698217,3.077122 -1.044281,-0.23694 0.698217,-3.077116 c 0.06409,-0.282476 -0.112952,-0.563503 -0.395436,-0.627533 -0.282865,-0.06415 -0.563441,0.112958 -0.627601,0.395426 l -0.698217,3.077123 -1.023023,-0.23221 0.698216,-3.077119 c 0.06409,-0.282474 -0.112951,-0.563505 -0.395434,-0.627535 -0.282402,-0.06415 -0.563499,0.112888 -0.627602,0.395427 l -0.698217,3.077117 -1.035229,-0.23489 1.047861,-4.611371 3.921271,0.88979 0.703782,0.15968 6.5e-5,8e-6 c 6.5e-5,9e-6 6.5e-5,9e-6 1.3e-4,1.8e-5 l 2.578794,0.585159 -1.046449,4.611696 z M 57.09746,92.3739 c -0.28292,-0.06422 -0.563506,0.112952 -0.627601,0.395426 l -0.680703,2.999844 -1.039007,-0.235819 1.025288,-4.518374 5.115164,1.160676 -1.025231,4.518448 -1.023028,-0.232171 0.680768,-2.999834 c 0.06409,-0.282476 -0.11296,-0.56344 -0.395426,-0.627601 -0.282726,-0.0642 -0.563506,0.112952 -0.627602,0.395427 l -0.680767,2.999834 -1.007048,-0.228532 0.680703,-2.99984 C 57.557053,92.718972 57.38,92.438007 57.09746,92.373903 Z m -2.196975,26.24978 0.547346,-2.4121 c 0.06409,-0.28248 -0.11295,-0.56351 -0.395426,-0.62761 -0.283014,-0.064 -0.563506,0.11296 -0.627601,0.39543 l -0.567661,2.50164 -1.076147,-0.14712 0.598908,-2.58935 c 0.06524,-0.28219 -0.110579,-0.56391 -0.39282,-0.62924 -0.282682,-0.0655 -0.563976,0.11058 -0.629232,0.39283 l -0.620588,2.68307 -1.031908,-0.14107 0.629037,-2.77198 c 0.06409,-0.28248 -0.112961,-0.56344 -0.395427,-0.6276 -0.282351,-0.064 -0.563506,0.11295 -0.6276,0.39543 l -0.649352,2.86151 -1.061012,-0.14505 1.013843,-4.46177 1.550503,0.3518 v 0 0 l 5.65861,1.28401 -0.86934,3.83122 -1.054125,-0.14411 z"
       id="path2"
       style="stroke-width:0.0655654" />
    <path
       style="fill:none;stroke:#ff3300;stroke-width:0.765;stroke-linecap:butt;stroke-linejoin:miter;stroke-miterlimit:4;stroke-dasharray:none;stroke-opacity:1"
       d="M 44.92945,90.397998 V 127.89889"
       id="path846" />
    <path
       style="fill:none;stroke:#ff3300;stroke-width:0.765;stroke-linecap:butt;stroke-linejoin:miter;stroke-miterlimit:4;stroke-dasharray:none;stroke-opacity:1"
       d="m 53.296557,91.226242 -7.83794,36.672648"
       id="path846-8" />
  </g>
</svg>
